<svg height="59.72" viewBox="0 0 255.12 59.72" width="255.12" xmlns="http://www.w3.org/2000/svg"><path d="m67.8 18.82c1.63-3.3 3.86-6.4 6.68-9.13 13.35-12.92 35-12.92 48.35 0 3.08 2.98 6.27 6.06 9.43 9.13 1.63-3.3 3.86-6.4 6.68-9.13 13.35-12.92 35-12.92 48.35 0 8.66 8.38 19.22 18.6 25.56 24.74 4.45 4.31 11.67 4.31 16.12 0 4.45-4.31 4.45-11.29 0-15.6-4.45-4.31-4.45-11.29 0-15.6 4.45-4.31 11.67-4.31 16.12 0 13.35 12.92 13.35 33.87 0 46.79-6.41 6.21-15.11 9.69-24.18 9.69s-17.76-3.49-24.18-9.69c-8.66-8.38-19.22-18.6-25.56-24.74-4.45-4.31-11.67-4.31-16.12 0-4.45 4.31-4.45 11.29 0 15.6 4.45 4.31 4.45 11.29 0 15.6-4.45 4.31-11.67 4.31-16.12 0-8.94-8.66-23.29-22.54-32.24-31.2-2.14-2.07-5.04-3.23-8.06-3.23s-5.92 1.16-8.06 3.23c-4.45 4.31-4.45 11.29 0 15.6 2.14 2.07 3.34 4.87 3.34 7.8s-1.2 5.73-3.34 7.8c-4.45 4.31-11.67 4.31-16.12 0-8.94-8.66-23.29-22.54-32.24-31.2-2.14-2.07-5.04-3.23-8.06-3.23s-5.92 1.16-8.06 3.23c-4.45 4.31-4.45 11.29 0 15.6 2.14 2.07 3.34 4.87 3.34 7.8s-1.2 5.73-3.34 7.8c-4.45 4.31-11.67 4.31-16.12 0-13.35-12.92-13.35-33.87 0-46.79 13.35-12.92 35-12.92 48.35 0 3.13 2.98 6.31 6.07 9.48 9.13"/></svg>
